<?xml version="1.0" encoding="UTF-8" standalone="no"?>
<!DOCTYPE svg PUBLIC "-//W3C//DTD SVG 1.1//EN" "http://www.w3.org/Graphics/SVG/1.1/DTD/svg11.dtd">
<svg version="1.1" xmlns:xl="http://www.w3.org/1999/xlink" xmlns="http://www.w3.org/2000/svg" xmlns:dc="http://purl.org/dc/elements/1.1/" viewBox="-1 -4 129 32" width="129" height="32">
  <defs/>
  <g id="pigsty-logo-text-dark" fill-opacity="1" stroke-opacity="1" stroke="none" fill="none" stroke-dasharray="none">
    <title>pigsty-logo-text-dark</title>
    <g id="pigsty-logo-text-dark_layer">
      <title>layer</title>
      <g id="Group_25">
        <g id="Group_17">
          <g id="Graphic_15">
            <path d="M 6.960225 11.982841 L 9.272532 7.978357 L 13.897147 7.978357 L 16.209455 11.982841 L 13.897147 15.987325 L 9.272532 15.987325 Z" fill="#bbb" fill-opacity=".9526367"/>
            <path d="M 6.960225 11.982841 L 9.272532 7.978357 L 13.897147 7.978357 L 16.209455 11.982841 L 13.897147 15.987325 L 9.272532 15.987325 Z" stroke="white" stroke-linecap="round" stroke-linejoin="round" stroke-width=".7187177"/>
          </g>
          <g id="Graphic_14">
            <path d="M 6.960225 19.995516 L 9.272532 15.991032 L 13.897147 15.991032 L 16.209455 19.995516 L 13.897147 24 L 9.272532 24 Z" fill="#de372c" fill-opacity=".8545852"/>
            <path d="M 6.960225 19.995516 L 9.272532 15.991032 L 13.897147 15.991032 L 16.209455 19.995516 L 13.897147 24 L 9.272532 24 Z" stroke="white" stroke-linecap="round" stroke-linejoin="round" stroke-width=".7187177"/>
          </g>
          <g id="Graphic_13">
            <path d="M 13.89725 16.01922 L 16.209557 12.014736 L 20.834172 12.014736 L 23.14648 16.01922 L 20.834172 20.023704 L 16.209557 20.023704 Z" fill="#424242" fill-opacity=".9016462"/>
            <path d="M 13.89725 16.01922 L 16.209557 12.014736 L 20.834172 12.014736 L 23.14648 16.01922 L 20.834172 20.023704 L 16.209557 20.023704 Z" stroke="white" stroke-linecap="round" stroke-linejoin="round" stroke-width=".7187177"/>
          </g>
          <g id="Graphic_12">
            <path d="M 13.89725 7.983347 L 16.209557 3.9788634 L 20.834172 3.9788634 L 23.14648 7.983347 L 20.834172 11.987831 L 16.209557 11.987831 Z" fill="#ffa269" fill-opacity=".8975772"/>
            <path d="M 13.89725 7.983347 L 16.209557 3.9788634 L 20.834172 3.9788634 L 23.14648 7.983347 L 20.834172 11.987831 L 16.209557 11.987831 Z" stroke="white" stroke-linecap="round" stroke-linejoin="round" stroke-width=".7187177"/>
          </g>
          <g id="Graphic_11">
            <path d="M 6.960225 4.004484 L 9.272532 0 L 13.897147 0 L 16.209455 4.004484 L 13.897147 8.008968 L 9.272532 8.008968 Z" fill="#419edb" fill-opacity=".8979957"/>
            <path d="M 6.960225 4.004484 L 9.272532 0 L 13.897147 0 L 16.209455 4.004484 L 13.897147 8.008968 L 9.272532 8.008968 Z" stroke="white" stroke-linecap="round" stroke-linejoin="round" stroke-width=".7187177"/>
          </g>
          <g id="Graphic_10">
            <path d="M -53290705e-22 7.983347 L 2.3123074 3.9788634 L 6.936922 3.9788634 L 9.24923 7.983347 L 6.936922 11.987831 L 2.3123074 11.987831 Z" fill="#2f6793" fill-opacity=".9002511"/>
            <path d="M -53290705e-22 7.983347 L 2.3123074 3.9788634 L 6.936922 3.9788634 L 9.24923 7.983347 L 6.936922 11.987831 L 2.3123074 11.987831 Z" stroke="white" stroke-linecap="round" stroke-linejoin="round" stroke-width=".7187177"/>
          </g>
          <g id="Graphic_9">
            <path d="M .035134005 16.008364 L 2.3474414 12.00388 L 6.972056 12.00388 L 9.284364 16.008364 L 6.972056 20.012848 L 2.3474414 20.012848 Z" fill="#53ac79" fill-opacity=".9"/>
            <path d="M .035134005 16.008364 L 2.3474414 12.00388 L 6.972056 12.00388 L 9.284364 16.008364 L 6.972056 20.012848 L 2.3474414 20.012848 Z" stroke="white" stroke-linecap="round" stroke-linejoin="round" stroke-width=".7187177"/>
          </g>
        </g>
        <g id="Graphic_21">
          <text transform="translate(27.385545 -3.5)" fill="#f5f5f7">
            <tspan font-family="Arial Black" font-weight="bold" font-size="22" fill="#f5f5f7" x="1.9756851" y="24">PIGSTY</tspan>
          </text>
        </g>
      </g>
    </g>
  </g>
</svg>
