<?xml version="1.0" encoding="UTF-8" standalone="no"?>
<!DOCTYPE svg PUBLIC "-//W3C//DTD SVG 1.1//EN" "http://www.w3.org/Graphics/SVG/1.1/DTD/svg11.dtd">
<svg version="1.1" xmlns:xl="http://www.w3.org/1999/xlink" xmlns="http://www.w3.org/2000/svg" xmlns:dc="http://purl.org/dc/elements/1.1/" viewBox="-1 -1 89 26" width="89" height="26">
  <defs/>
  <g id="Pigsty_Logo_1" fill-opacity="1" stroke-opacity="1" stroke="none" fill="none" stroke-dasharray="none">
    <title>Pigsty Logo 1</title>
    <g id="Pigsty_Logo_1_图层_2">
      <title>图层 2</title>
      <g id="Group_20">
        <g id="Group_17">
          <g id="Graphic_15">
            <path d="M 6.959273 11.982841 L 9.271264 7.978357 L 13.895246 7.978357 L 16.207237 11.982841 L 13.895246 15.987325 L 9.271264 15.987325 Z" fill="#bbb" fill-opacity=".9526367"/>
            <path d="M 6.959273 11.982841 L 9.271264 7.978357 L 13.895246 7.978357 L 16.207237 11.982841 L 13.895246 15.987325 L 9.271264 15.987325 Z" stroke="white" stroke-linecap="round" stroke-linejoin="round" stroke-width=".7187177"/>
          </g>
          <g id="Graphic_14">
            <path d="M 6.959273 19.995516 L 9.271264 15.991032 L 13.895246 15.991032 L 16.207237 19.995516 L 13.895246 24 L 9.271264 24 Z" fill="#de372c" fill-opacity=".8545852"/>
            <path d="M 6.959273 19.995516 L 9.271264 15.991032 L 13.895246 15.991032 L 16.207237 19.995516 L 13.895246 24 L 9.271264 24 Z" stroke="white" stroke-linecap="round" stroke-linejoin="round" stroke-width=".7187177"/>
          </g>
          <g id="Graphic_13">
            <path d="M 13.895348 16.01922 L 16.207339 12.014736 L 20.83132 12.014736 L 23.143312 16.01922 L 20.83132 20.023704 L 16.207339 20.023704 Z" fill="#424242" fill-opacity=".9016462"/>
            <path d="M 13.895348 16.01922 L 16.207339 12.014736 L 20.83132 12.014736 L 23.143312 16.01922 L 20.83132 20.023704 L 16.207339 20.023704 Z" stroke="white" stroke-linecap="round" stroke-linejoin="round" stroke-width=".7187177"/>
          </g>
          <g id="Graphic_12">
            <path d="M 13.895348 7.983347 L 16.207339 3.9788634 L 20.83132 3.9788634 L 23.143312 7.983347 L 20.83132 11.987831 L 16.207339 11.987831 Z" fill="#ffa269" fill-opacity=".8975772"/>
            <path d="M 13.895348 7.983347 L 16.207339 3.9788634 L 20.83132 3.9788634 L 23.143312 7.983347 L 20.83132 11.987831 L 16.207339 11.987831 Z" stroke="white" stroke-linecap="round" stroke-linejoin="round" stroke-width=".7187177"/>
          </g>
          <g id="Graphic_11">
            <path d="M 6.959273 4.004484 L 9.271264 0 L 13.895246 0 L 16.207237 4.004484 L 13.895246 8.008968 L 9.271264 8.008968 Z" fill="#419edb" fill-opacity=".8979957"/>
            <path d="M 6.959273 4.004484 L 9.271264 0 L 13.895246 0 L 16.207237 4.004484 L 13.895246 8.008968 L 9.271264 8.008968 Z" stroke="white" stroke-linecap="round" stroke-linejoin="round" stroke-width=".7187177"/>
          </g>
          <g id="Graphic_10">
            <path d="M 0 7.983347 L 2.311991 3.9788634 L 6.935973 3.9788634 L 9.247964 7.983347 L 6.935973 11.987831 L 2.311991 11.987831 Z" fill="#2f6793" fill-opacity=".9002511"/>
            <path d="M 0 7.983347 L 2.311991 3.9788634 L 6.935973 3.9788634 L 9.247964 7.983347 L 6.935973 11.987831 L 2.311991 11.987831 Z" stroke="white" stroke-linecap="round" stroke-linejoin="round" stroke-width=".7187177"/>
          </g>
          <g id="Graphic_9">
            <path d="M .035129197 16.008364 L 2.3471202 12.00388 L 6.971102 12.00388 L 9.283093 16.008364 L 6.971102 20.012848 L 2.3471202 20.012848 Z" fill="#53ac79" fill-opacity=".9"/>
            <path d="M .035129197 16.008364 L 2.3471202 12.00388 L 6.971102 12.00388 L 9.283093 16.008364 L 6.971102 20.012848 L 2.3471202 20.012848 Z" stroke="white" stroke-linecap="round" stroke-linejoin="round" stroke-width=".7187177"/>
          </g>
        </g>
        <g id="Graphic_19">
          <text transform="translate(29.8 1.1)" fill="black">
            <tspan font-family="Alibaba PuHuiTi 3.0" font-weight="bold" font-size="15" fill="black" x="6103516e-13" y="16">PIGSTY</tspan>
          </text>
        </g>
      </g>
    </g>
  </g>
</svg>
